<mxfile host="65bd71144e">
    <diagram id="11x-jC29ttlSeigOBbJ5" name="Page-1">
        <mxGraphModel dx="3297" dy="1609" grid="1" gridSize="10" guides="1" tooltips="1" connect="1" arrows="1" fold="1" page="1" pageScale="1" pageWidth="850" pageHeight="1100" math="0" shadow="0">
            <root>
                <mxCell id="0"/>
                <mxCell id="1" parent="0"/>
                <mxCell id="75" value="&lt;font style=&quot;font-size: 20px;&quot;&gt;Gestion Catalogue Des Films&lt;/font&gt;" style="swimlane;whiteSpace=wrap;html=1;" vertex="1" parent="1">
                    <mxGeometry x="690" y="90" width="1310" height="2050" as="geometry"/>
                </mxCell>
                <mxCell id="86" value="&lt;span style=&quot;color: rgba(0, 0, 0, 0.88); font-family: &amp;quot;Nunito Sans&amp;quot;, &amp;quot;sans-serif&amp;quot;; font-size: 14px; text-align: left; background-color: rgb(255, 255, 255);&quot;&gt;Gérer catégories&lt;/span&gt;" style="ellipse;whiteSpace=wrap;html=1;" vertex="1" parent="75">
                    <mxGeometry x="125" y="959" width="290" height="80" as="geometry"/>
                </mxCell>
                <mxCell id="87" value="Supprimer" style="ellipse;whiteSpace=wrap;html=1;" vertex="1" parent="75">
                    <mxGeometry x="515" y="984" width="150" height="60" as="geometry"/>
                </mxCell>
                <mxCell id="88" value="Modifier&amp;nbsp;" style="ellipse;whiteSpace=wrap;html=1;" vertex="1" parent="75">
                    <mxGeometry x="515" y="904" width="150" height="60" as="geometry"/>
                </mxCell>
                <mxCell id="89" value="Créer&amp;nbsp;" style="ellipse;whiteSpace=wrap;html=1;" vertex="1" parent="75">
                    <mxGeometry x="515" y="824" width="150" height="60" as="geometry"/>
                </mxCell>
                <mxCell id="90" value="&amp;lt;&amp;lt;extend&amp;gt;&amp;gt;" style="html=1;verticalAlign=bottom;labelBackgroundColor=none;endArrow=open;endFill=0;dashed=1;exitX=0;exitY=0.5;exitDx=0;exitDy=0;entryX=1;entryY=0.5;entryDx=0;entryDy=0;" edge="1" parent="75" source="89" target="86">
                    <mxGeometry width="160" relative="1" as="geometry">
                        <mxPoint x="355" y="1074" as="sourcePoint"/>
                        <mxPoint x="445" y="924" as="targetPoint"/>
                    </mxGeometry>
                </mxCell>
                <mxCell id="91" value="&amp;lt;&amp;lt;extend&amp;gt;&amp;gt;" style="html=1;verticalAlign=bottom;labelBackgroundColor=none;endArrow=open;endFill=0;dashed=1;exitX=0;exitY=0.5;exitDx=0;exitDy=0;entryX=1;entryY=0.5;entryDx=0;entryDy=0;" edge="1" parent="75" source="88" target="86">
                    <mxGeometry width="160" relative="1" as="geometry">
                        <mxPoint x="525" y="864" as="sourcePoint"/>
                        <mxPoint x="445" y="924" as="targetPoint"/>
                    </mxGeometry>
                </mxCell>
                <mxCell id="92" value="&amp;lt;&amp;lt;extend&amp;gt;&amp;gt;" style="html=1;verticalAlign=bottom;labelBackgroundColor=none;endArrow=open;endFill=0;dashed=1;exitX=0;exitY=0.5;exitDx=0;exitDy=0;entryX=1;entryY=0.5;entryDx=0;entryDy=0;" edge="1" parent="75" source="87" target="86">
                    <mxGeometry width="160" relative="1" as="geometry">
                        <mxPoint x="505" y="1004" as="sourcePoint"/>
                        <mxPoint x="445" y="924" as="targetPoint"/>
                    </mxGeometry>
                </mxCell>
                <mxCell id="93" value="Consulter liste categories" style="ellipse;whiteSpace=wrap;html=1;" vertex="1" parent="75">
                    <mxGeometry x="515" y="1060" width="150" height="60" as="geometry"/>
                </mxCell>
                <mxCell id="94" value="&amp;lt;&amp;lt;extend&amp;gt;&amp;gt;" style="html=1;verticalAlign=bottom;labelBackgroundColor=none;endArrow=open;endFill=0;dashed=1;exitX=0;exitY=0.5;exitDx=0;exitDy=0;entryX=1;entryY=0.5;entryDx=0;entryDy=0;" edge="1" parent="75" source="93" target="86">
                    <mxGeometry width="160" relative="1" as="geometry">
                        <mxPoint x="515" y="1054" as="sourcePoint"/>
                        <mxPoint x="415" y="984" as="targetPoint"/>
                    </mxGeometry>
                </mxCell>
                <mxCell id="168" value="&lt;span style=&quot;color: rgba(0, 0, 0, 0.88); font-family: &amp;quot;Nunito Sans&amp;quot;, &amp;quot;sans-serif&amp;quot;; font-size: 14px; text-align: left; background-color: rgb(255, 255, 255);&quot;&gt;Gérer films&lt;/span&gt;" style="ellipse;whiteSpace=wrap;html=1;" vertex="1" parent="75">
                    <mxGeometry x="140" y="1600" width="290" height="80" as="geometry"/>
                </mxCell>
                <mxCell id="169" value="Supprimer" style="ellipse;whiteSpace=wrap;html=1;" vertex="1" parent="75">
                    <mxGeometry x="521" y="1466" width="150" height="60" as="geometry"/>
                </mxCell>
                <mxCell id="170" value="Modifier&amp;nbsp;" style="ellipse;whiteSpace=wrap;html=1;" vertex="1" parent="75">
                    <mxGeometry x="521" y="1386" width="150" height="60" as="geometry"/>
                </mxCell>
                <mxCell id="171" value="Créer&amp;nbsp;" style="ellipse;whiteSpace=wrap;html=1;" vertex="1" parent="75">
                    <mxGeometry x="521" y="1306" width="150" height="60" as="geometry"/>
                </mxCell>
                <mxCell id="172" value="&amp;lt;&amp;lt;extend&amp;gt;&amp;gt;" style="html=1;verticalAlign=bottom;labelBackgroundColor=none;endArrow=open;endFill=0;dashed=1;exitX=0;exitY=0.5;exitDx=0;exitDy=0;entryX=1;entryY=0.5;entryDx=0;entryDy=0;" edge="1" parent="75" source="171" target="168">
                    <mxGeometry width="160" relative="1" as="geometry">
                        <mxPoint x="361" y="1556" as="sourcePoint"/>
                        <mxPoint x="451" y="1406" as="targetPoint"/>
                    </mxGeometry>
                </mxCell>
                <mxCell id="173" value="&amp;lt;&amp;lt;extend&amp;gt;&amp;gt;" style="html=1;verticalAlign=bottom;labelBackgroundColor=none;endArrow=open;endFill=0;dashed=1;exitX=0;exitY=0.5;exitDx=0;exitDy=0;entryX=1;entryY=0.5;entryDx=0;entryDy=0;" edge="1" parent="75" source="170" target="168">
                    <mxGeometry width="160" relative="1" as="geometry">
                        <mxPoint x="531" y="1346" as="sourcePoint"/>
                        <mxPoint x="451" y="1406" as="targetPoint"/>
                    </mxGeometry>
                </mxCell>
                <mxCell id="174" value="&amp;lt;&amp;lt;extend&amp;gt;&amp;gt;" style="html=1;verticalAlign=bottom;labelBackgroundColor=none;endArrow=open;endFill=0;dashed=1;exitX=0;exitY=0.5;exitDx=0;exitDy=0;entryX=1;entryY=0.5;entryDx=0;entryDy=0;" edge="1" parent="75" source="169" target="168">
                    <mxGeometry width="160" relative="1" as="geometry">
                        <mxPoint x="511" y="1486" as="sourcePoint"/>
                        <mxPoint x="451" y="1406" as="targetPoint"/>
                    </mxGeometry>
                </mxCell>
                <mxCell id="175" value="&lt;span style=&quot;color: rgba(0, 0, 0, 0.88); font-family: &amp;quot;Nunito Sans&amp;quot;, &amp;quot;sans-serif&amp;quot;; font-size: 14px; text-align: start; background-color: rgb(255, 255, 255);&quot;&gt;consulter&amp;nbsp; liste de tous les films&lt;/span&gt;" style="ellipse;whiteSpace=wrap;html=1;" vertex="1" parent="75">
                    <mxGeometry x="521" y="1566" width="189" height="64" as="geometry"/>
                </mxCell>
                <mxCell id="176" value="&amp;lt;&amp;lt;extend&amp;gt;&amp;gt;" style="html=1;verticalAlign=bottom;labelBackgroundColor=none;endArrow=open;endFill=0;dashed=1;exitX=0;exitY=0.5;exitDx=0;exitDy=0;entryX=1;entryY=0.5;entryDx=0;entryDy=0;" edge="1" parent="75" source="175" target="168">
                    <mxGeometry width="160" relative="1" as="geometry">
                        <mxPoint x="521" y="1536" as="sourcePoint"/>
                        <mxPoint x="421" y="1466" as="targetPoint"/>
                    </mxGeometry>
                </mxCell>
                <mxCell id="177" value="&lt;span style=&quot;color: rgba(0, 0, 0, 0.88); font-family: &amp;quot;Nunito Sans&amp;quot;, &amp;quot;sans-serif&amp;quot;; font-size: 14px; text-align: left; background-color: rgb(255, 255, 255);&quot;&gt;Gérer Réalisateurs&lt;/span&gt;" style="ellipse;whiteSpace=wrap;html=1;" vertex="1" parent="75">
                    <mxGeometry x="110" y="380" width="290" height="80" as="geometry"/>
                </mxCell>
                <mxCell id="178" value="Suppriper" style="ellipse;whiteSpace=wrap;html=1;" vertex="1" parent="75">
                    <mxGeometry x="521" y="350" width="150" height="60" as="geometry"/>
                </mxCell>
                <mxCell id="179" value="Modifier&amp;nbsp;" style="ellipse;whiteSpace=wrap;html=1;" vertex="1" parent="75">
                    <mxGeometry x="521" y="270" width="150" height="60" as="geometry"/>
                </mxCell>
                <mxCell id="180" value="Créer&amp;nbsp;" style="ellipse;whiteSpace=wrap;html=1;" vertex="1" parent="75">
                    <mxGeometry x="521" y="190" width="150" height="60" as="geometry"/>
                </mxCell>
                <mxCell id="181" value="&amp;lt;&amp;lt;extend&amp;gt;&amp;gt;" style="html=1;verticalAlign=bottom;labelBackgroundColor=none;endArrow=open;endFill=0;dashed=1;exitX=0;exitY=0.5;exitDx=0;exitDy=0;entryX=1;entryY=0.5;entryDx=0;entryDy=0;" edge="1" parent="75" source="180" target="177">
                    <mxGeometry width="160" relative="1" as="geometry">
                        <mxPoint x="361" y="440" as="sourcePoint"/>
                        <mxPoint x="451" y="290" as="targetPoint"/>
                    </mxGeometry>
                </mxCell>
                <mxCell id="182" value="&amp;lt;&amp;lt;extend&amp;gt;&amp;gt;" style="html=1;verticalAlign=bottom;labelBackgroundColor=none;endArrow=open;endFill=0;dashed=1;exitX=0;exitY=0.5;exitDx=0;exitDy=0;entryX=1;entryY=0.5;entryDx=0;entryDy=0;" edge="1" parent="75" source="179" target="177">
                    <mxGeometry width="160" relative="1" as="geometry">
                        <mxPoint x="531" y="230" as="sourcePoint"/>
                        <mxPoint x="451" y="290" as="targetPoint"/>
                    </mxGeometry>
                </mxCell>
                <mxCell id="183" value="&amp;lt;&amp;lt;extend&amp;gt;&amp;gt;" style="html=1;verticalAlign=bottom;labelBackgroundColor=none;endArrow=open;endFill=0;dashed=1;exitX=0;exitY=0.5;exitDx=0;exitDy=0;entryX=1;entryY=0.5;entryDx=0;entryDy=0;" edge="1" parent="75" source="178" target="177">
                    <mxGeometry width="160" relative="1" as="geometry">
                        <mxPoint x="511" y="370" as="sourcePoint"/>
                        <mxPoint x="451" y="290" as="targetPoint"/>
                    </mxGeometry>
                </mxCell>
                <mxCell id="184" value="consulter liste réalisateurs" style="ellipse;whiteSpace=wrap;html=1;" vertex="1" parent="75">
                    <mxGeometry x="521" y="438" width="150" height="60" as="geometry"/>
                </mxCell>
                <mxCell id="185" value="&amp;lt;&amp;lt;extend&amp;gt;&amp;gt;" style="html=1;verticalAlign=bottom;labelBackgroundColor=none;endArrow=open;endFill=0;dashed=1;exitX=0;exitY=0.5;exitDx=0;exitDy=0;entryX=1;entryY=0.5;entryDx=0;entryDy=0;" edge="1" parent="75" source="184" target="177">
                    <mxGeometry width="160" relative="1" as="geometry">
                        <mxPoint x="521" y="420" as="sourcePoint"/>
                        <mxPoint x="421" y="350" as="targetPoint"/>
                    </mxGeometry>
                </mxCell>
                <mxCell id="187" value="Rechercher par nom" style="ellipse;whiteSpace=wrap;html=1;" vertex="1" parent="75">
                    <mxGeometry x="515" y="610" width="150" height="60" as="geometry"/>
                </mxCell>
                <mxCell id="218" value="&lt;span style=&quot;color: rgba(0, 0, 0, 0.88); font-family: &amp;quot;Nunito Sans&amp;quot;, &amp;quot;sans-serif&amp;quot;; font-size: 14px; text-align: start; background-color: rgb(255, 255, 255);&quot;&gt;&amp;nbsp;consulter la filmographie complète d&#39;un réalisateur&lt;/span&gt;" style="ellipse;whiteSpace=wrap;html=1;" vertex="1" parent="75">
                    <mxGeometry x="515" y="520" width="175" height="60" as="geometry"/>
                </mxCell>
                <mxCell id="220" value="&amp;lt;&amp;lt;extend&amp;gt;&amp;gt;" style="html=1;verticalAlign=bottom;labelBackgroundColor=none;endArrow=open;endFill=0;dashed=1;exitX=0;exitY=0.5;exitDx=0;exitDy=0;entryX=1;entryY=0.5;entryDx=0;entryDy=0;" edge="1" parent="75" source="218" target="177">
                    <mxGeometry width="160" relative="1" as="geometry">
                        <mxPoint x="491" y="520" as="sourcePoint"/>
                        <mxPoint x="370" y="472" as="targetPoint"/>
                    </mxGeometry>
                </mxCell>
                <mxCell id="221" value="&amp;lt;&amp;lt;extend&amp;gt;&amp;gt;" style="html=1;verticalAlign=bottom;labelBackgroundColor=none;endArrow=open;endFill=0;dashed=1;exitX=0;exitY=0.5;exitDx=0;exitDy=0;entryX=1;entryY=0.5;entryDx=0;entryDy=0;" edge="1" parent="75" source="187" target="177">
                    <mxGeometry width="160" relative="1" as="geometry">
                        <mxPoint x="505" y="590" as="sourcePoint"/>
                        <mxPoint x="390" y="460" as="targetPoint"/>
                    </mxGeometry>
                </mxCell>
                <mxCell id="222" value="&lt;span style=&quot;color: rgba(0, 0, 0, 0.88); font-family: &amp;quot;Nunito Sans&amp;quot;, &amp;quot;sans-serif&amp;quot;; font-size: 14px; text-align: start; background-color: rgb(255, 255, 255);&quot;&gt;&amp;nbsp;consulter tous les films d&#39;une catégorie donnée&lt;/span&gt;" style="ellipse;whiteSpace=wrap;html=1;" vertex="1" parent="75">
                    <mxGeometry x="510" y="1144" width="190" height="66" as="geometry"/>
                </mxCell>
                <mxCell id="223" value="&amp;lt;&amp;lt;extend&amp;gt;&amp;gt;" style="html=1;verticalAlign=bottom;labelBackgroundColor=none;endArrow=open;endFill=0;dashed=1;exitX=0;exitY=0.5;exitDx=0;exitDy=0;entryX=1;entryY=0.5;entryDx=0;entryDy=0;" edge="1" parent="75" source="222" target="86">
                    <mxGeometry width="160" relative="1" as="geometry">
                        <mxPoint x="460" y="1143" as="sourcePoint"/>
                        <mxPoint x="360" y="1037" as="targetPoint"/>
                    </mxGeometry>
                </mxCell>
                <mxCell id="224" value="&lt;span style=&quot;color: rgba(0, 0, 0, 0.88); font-family: &amp;quot;Nunito Sans&amp;quot;, &amp;quot;sans-serif&amp;quot;; font-size: 14px; text-align: start; background-color: rgb(255, 255, 255);&quot;&gt;rechercher un film par son titre&lt;/span&gt;" style="ellipse;whiteSpace=wrap;html=1;" vertex="1" parent="75">
                    <mxGeometry x="515" y="1650" width="189" height="64" as="geometry"/>
                </mxCell>
                <mxCell id="225" value="&lt;span style=&quot;color: rgba(0, 0, 0, 0.88); font-family: &amp;quot;Nunito Sans&amp;quot;, &amp;quot;sans-serif&amp;quot;; font-size: 14px; text-align: start; background-color: rgb(255, 255, 255);&quot;&gt;consulter les détails complets d&#39;un film&lt;/span&gt;" style="ellipse;whiteSpace=wrap;html=1;" vertex="1" parent="75">
                    <mxGeometry x="515" y="1740" width="189" height="64" as="geometry"/>
                </mxCell>
                <mxCell id="226" value="&lt;span style=&quot;color: rgba(0, 0, 0, 0.88); font-family: &amp;quot;Nunito Sans&amp;quot;, &amp;quot;sans-serif&amp;quot;; font-size: 14px; text-align: start; background-color: rgb(255, 255, 255);&quot;&gt;filtrer les films par année de sortie&lt;/span&gt;" style="ellipse;whiteSpace=wrap;html=1;" vertex="1" parent="75">
                    <mxGeometry x="515" y="1830" width="189" height="64" as="geometry"/>
                </mxCell>
                <mxCell id="228" value="&lt;span style=&quot;color: rgba(0, 0, 0, 0.88); font-family: &amp;quot;Nunito Sans&amp;quot;, &amp;quot;sans-serif&amp;quot;; font-size: 14px; text-align: start; background-color: rgb(255, 255, 255);&quot;&gt;filtrer les films par note minimal&lt;/span&gt;" style="ellipse;whiteSpace=wrap;html=1;" vertex="1" parent="75">
                    <mxGeometry x="515" y="1920" width="189" height="64" as="geometry"/>
                </mxCell>
                <mxCell id="229" value="&amp;lt;&amp;lt;extend&amp;gt;&amp;gt;" style="html=1;verticalAlign=bottom;labelBackgroundColor=none;endArrow=open;endFill=0;dashed=1;exitX=0;exitY=0.5;exitDx=0;exitDy=0;entryX=1;entryY=0.5;entryDx=0;entryDy=0;" edge="1" parent="75" source="224" target="168">
                    <mxGeometry width="160" relative="1" as="geometry">
                        <mxPoint x="531" y="1630" as="sourcePoint"/>
                        <mxPoint x="440" y="1672" as="targetPoint"/>
                    </mxGeometry>
                </mxCell>
                <mxCell id="230" value="&amp;lt;&amp;lt;extend&amp;gt;&amp;gt;" style="html=1;verticalAlign=bottom;labelBackgroundColor=none;endArrow=open;endFill=0;dashed=1;entryX=1;entryY=0.5;entryDx=0;entryDy=0;" edge="1" parent="75" target="168">
                    <mxGeometry width="160" relative="1" as="geometry">
                        <mxPoint x="510" y="1760" as="sourcePoint"/>
                        <mxPoint x="425" y="1680" as="targetPoint"/>
                    </mxGeometry>
                </mxCell>
                <mxCell id="231" value="&amp;lt;&amp;lt;extend&amp;gt;&amp;gt;" style="html=1;verticalAlign=bottom;labelBackgroundColor=none;endArrow=open;endFill=0;dashed=1;entryX=1;entryY=0.5;entryDx=0;entryDy=0;exitX=0;exitY=0.5;exitDx=0;exitDy=0;" edge="1" parent="75" source="226" target="168">
                    <mxGeometry width="160" relative="1" as="geometry">
                        <mxPoint x="510" y="1800" as="sourcePoint"/>
                        <mxPoint x="430" y="1680" as="targetPoint"/>
                    </mxGeometry>
                </mxCell>
                <mxCell id="232" value="&amp;lt;&amp;lt;extend&amp;gt;&amp;gt;" style="html=1;verticalAlign=bottom;labelBackgroundColor=none;endArrow=open;endFill=0;dashed=1;exitX=0;exitY=0.5;exitDx=0;exitDy=0;entryX=1;entryY=0.5;entryDx=0;entryDy=0;" edge="1" parent="75" source="228" target="168">
                    <mxGeometry width="160" relative="1" as="geometry">
                        <mxPoint x="500" y="1942" as="sourcePoint"/>
                        <mxPoint x="430" y="1680" as="targetPoint"/>
                    </mxGeometry>
                </mxCell>
                <mxCell id="150" style="edgeStyle=none;html=1;exitX=0.5;exitY=0.5;exitDx=0;exitDy=0;exitPerimeter=0;entryX=0;entryY=0.5;entryDx=0;entryDy=0;endArrow=none;endFill=0;" edge="1" parent="1" source="153" target="177">
                    <mxGeometry relative="1" as="geometry">
                        <mxPoint x="810" y="450" as="targetPoint"/>
                    </mxGeometry>
                </mxCell>
                <mxCell id="186" style="edgeStyle=none;html=1;exitX=0.5;exitY=0.5;exitDx=0;exitDy=0;exitPerimeter=0;entryX=0;entryY=0.5;entryDx=0;entryDy=0;" edge="1" parent="1" source="153" target="168">
                    <mxGeometry relative="1" as="geometry"/>
                </mxCell>
                <mxCell id="153" value="&lt;span style=&quot;color: rgb(0, 0, 0);&quot;&gt;Admin&lt;/span&gt;" style="shape=umlActor;verticalLabelPosition=bottom;verticalAlign=top;html=1;outlineConnect=0;" vertex="1" parent="1">
                    <mxGeometry x="450" y="1031" width="100" height="126" as="geometry"/>
                </mxCell>
                <mxCell id="160" style="edgeStyle=none;html=1;exitX=0;exitY=0.5;exitDx=0;exitDy=0;entryX=0.5;entryY=0.5;entryDx=0;entryDy=0;entryPerimeter=0;endArrow=none;endFill=0;" edge="1" parent="1" source="86" target="153">
                    <mxGeometry relative="1" as="geometry"/>
                </mxCell>
            </root>
        </mxGraphModel>
    </diagram>
</mxfile>